# xmcd
#
# Track frame offsets:
#	150
#	14150
#	25531
#	38623
#	51480
#	62605
#	77548
#	90071
#	100307
#	111622
#	123071
#	134522
#	145750
#	155609
#	166358
#	176223
#	187763
#	198452
#	211769
#	221277
#
# Disc length: 3084 seconds
# Revision: 0
# Processed by: cddbd v1.5.2PL0 Copyright (c) Steve Scherf et al.
# Submitted via: dBpowerAMP V12.0
#
DISCID=0c0c0a14
DTITLE=Various Artist - The Complete Modern and Kent Recordings
DYEAR=1955
DGENRE=Rhythm and Blues
TTITLE0=Etta James and The Peaches - The Wallflower
TTITLE1=Etta James and The Peaches - Hold Me, Squeeze Me
TTITLE2=Etta James - Hey Henry
TTITLE3=Etta James - Be Mine
TTITLE4=Etta James - Good Rockin' Daddy
TTITLE5=Etta James - Crazy Feeling
TTITLE6=Etta James - Woman
TTITLE7=Etta James - That's All
TTITLE8=Etta James - My One And Only
TTITLE9=Etta James - I'm A Fool
TTITLE10=Etta James - Shortnin' Bread Rock
TTITLE11=Etta James - Tears Of Joy
TTITLE12=Etta James - Tough Lover
TTITLE13=Etta James - Fools We Mortals Be
TTITLE14=Etta James - Good Lookin'
TTITLE15=Etta James - Then I'll Care
TTITLE16=Etta James - The Pick-Up
TTITLE17=Etta James - Market Place
TTITLE18=Etta James - Come What May
TTITLE19=Etta James - By The Light Of The Silvery Moon
EXTD=
EXTT0=
EXTT1=
EXTT2=
EXTT3=
EXTT4=
EXTT5=
EXTT6=
EXTT7=
EXTT8=
EXTT9=
EXTT10=
EXTT11=
EXTT12=
EXTT13=
EXTT14=
EXTT15=
EXTT16=
EXTT17=
EXTT18=
EXTT19=
PLAYORDER=
